<?xml version="1.0" standalone="no"?><!DOCTYPE svg PUBLIC "-//W3C//DTD SVG 1.1//EN" "http://www.w3.org/Graphics/SVG/1.1/DTD/svg11.dtd"><svg t="1707920696842" class="icon" viewBox="0 0 1024 1024" version="1.1" xmlns="http://www.w3.org/2000/svg" p-id="3610" xmlns:xlink="http://www.w3.org/1999/xlink" width="200" height="200"><path d="M918.8 770.9H804.7V656.8c0-13.8-11.2-25-25-25s-25 11.2-25 25v114.1h-114c-13.8 0-25 11.2-25 25s11.2 25 25 25h114.1V935c0 13.8 11.2 25 25 25s25-11.2 25-25V820.9h114.1c13.8 0 25-11.2 25-25s-11.3-25-25.1-25zM487.4 483.1c116.5 0 211.4-94.3 211.4-210.1S603.9 62.8 487.4 62.8C370.8 62.8 276 157.1 276 273s94.8 210.1 211.4 210.1z m0-370.3c89 0 161.4 71.8 161.4 160.1S576.4 433 487.4 433 326 361.2 326 272.9s72.4-160.1 161.4-160.1z" fill="currentColor" p-id="3611"></path><path d="M560.2 909.6c-25.7-0.5-47.1-0.7-67.5-0.7-40.6 0-79 0.9-116.2 1.9-106.7 2.6-207.5 5.1-236.9-23.6-4.1-4-8.8-10.4-8.8-23.8 0-14.6 5.4-56.4 17.1-99.6 14.2-52.4 29.7-78.2 39.6-85.1 187.9-114.6 188-114.6 308.7-114.6 92.8 0 112.1 0 181.2 39.9 12 6.9 27.2 2.8 34.1-9.2 6.9-12 2.8-27.2-9.2-34.1-80.7-46.6-109.8-46.6-206.2-46.6-64.6 0-100.2 0-144.6 16.4-42.7 15.5-92.1 45.7-190.5 105.7-0.3 0.2-0.5 0.3-0.8 0.5-24.1 15.9-44.5 54.3-60.7 114-12.1 45.3-18.7 91.8-18.7 112.6 0 24.1 8 44.1 23.9 59.6 33.3 32.5 95.6 39.3 180.6 39.3 28.4 0 59.3-0.8 92.4-1.6 36.9-0.9 75-1.8 114.9-1.8 20 0 41.2 0.2 66.5 0.7h0.5c13.6 0 24.7-10.9 25-24.5 0.4-13.7-10.6-25.1-24.4-25.4z" fill="currentColor" p-id="3612"></path></svg>